<svg xmlns="http://www.w3.org/2000/svg" xmlns:xlink="http://www.w3.org/1999/xlink" width="2000" zoomAndPan="magnify" viewBox="0 0 1500 1499.999933" height="2000" preserveAspectRatio="xMidYMid meet" version="1.0"><defs><g/><clipPath id="71186f176c"><path d="M 837 667 L 1015 667 L 1015 942.285156 L 837 942.285156 Z M 837 667 " clip-rule="nonzero"/></clipPath><clipPath id="c8ade94471"><path d="M 484 449 L 932 449 L 932 942.285156 L 484 942.285156 Z M 484 449 " clip-rule="nonzero"/></clipPath><clipPath id="b8d650035a"><path d="M 881.898438 450 L 931 450 L 931 487.785156 L 881.898438 487.785156 Z M 881.898438 450 " clip-rule="nonzero"/></clipPath></defs><rect x="-150" width="1800" fill="#ffffff" y="-149.999993" height="1799.99992" fill-opacity="1"/><rect x="-150" width="1800" fill="#051344" y="-149.999993" height="1799.99992" fill-opacity="1"/><g clip-path="url(#71186f176c)"><path fill="#f5f8fd" d="M 1008.796875 873.957031 L 889.675781 667.671875 L 837.15625 758.746094 L 929.90625 919.4375 C 938.285156 933.964844 953.59375 942.230469 969.351562 942.230469 C 977.0625 942.230469 984.882812 940.21875 992.035156 936.085938 C 1013.9375 923.457031 1021.3125 895.746094 1008.796875 873.957031 Z M 1008.796875 873.957031 " fill-opacity="1" fill-rule="nonzero"/></g><g clip-path="url(#c8ade94471)"><path fill="#f5f8fd" d="M 925.210938 554.363281 L 874.703125 641.859375 L 822.070312 732.933594 L 740.71875 873.84375 C 716.359375 916.082031 670.878906 942.34375 622.15625 942.34375 C 572.65625 942.34375 528.292969 916.753906 503.484375 873.84375 C 478.675781 831.046875 478.675781 779.753906 503.484375 736.84375 L 645.847656 490.445312 C 660.597656 464.855469 687.082031 449.546875 716.582031 449.546875 C 746.082031 449.546875 772.566406 464.855469 787.429688 490.445312 L 792.570312 499.382812 L 807.320312 524.863281 L 754.6875 615.933594 L 716.582031 550.003906 L 582.488281 782.324219 C 570.53125 802.996094 578.464844 821.324219 582.488281 828.25 C 586.511719 835.179688 598.355469 851.269531 622.269531 851.269531 C 638.585938 851.269531 653.894531 842.441406 661.9375 828.25 L 769.550781 641.859375 L 822.183594 550.789062 L 846.320312 508.882812 C 858.945312 487.09375 886.773438 479.605469 908.5625 492.234375 C 930.351562 504.75 937.839844 532.574219 925.210938 554.363281 Z M 925.210938 554.363281 " fill-opacity="1" fill-rule="nonzero"/></g><path fill="#f5f8fd" d="M 903.085938 446.191406 C 927.445312 501.058594 1008.6875 467.425781 987.230469 411.328125 C 962.757812 356.574219 881.519531 390.207031 903.085938 446.191406 Z M 903.085938 446.191406 " fill-opacity="1" fill-rule="nonzero"/><g clip-path="url(#b8d650035a)"><path fill="#2f91fa" d="M 923.730469 570.386719 L 865.734375 670.855469 L 805.296875 775.433594 L 711.882812 937.238281 C 683.910156 985.742188 631.6875 1015.894531 575.742188 1015.894531 C 518.898438 1015.894531 467.957031 986.511719 439.472656 937.238281 C 410.984375 888.09375 410.984375 829.199219 439.472656 779.925781 L 602.945312 496.988281 C 619.882812 467.605469 650.292969 450.027344 684.167969 450.027344 C 718.042969 450.027344 748.453125 467.605469 765.519531 496.988281 L 771.421875 507.253906 L 788.359375 536.511719 L 727.921875 641.085938 L 684.167969 565.382812 L 530.191406 832.148438 C 516.460938 855.886719 525.570312 876.929688 530.191406 884.886719 C 534.808594 892.839844 548.410156 911.320312 575.871094 911.320312 C 594.605469 911.320312 612.183594 901.183594 621.421875 884.886719 L 744.988281 670.855469 L 805.425781 566.28125 L 833.140625 518.160156 C 847.640625 493.140625 879.59375 484.542969 904.613281 499.042969 C 929.636719 513.414062 938.230469 545.363281 923.730469 570.386719 Z M 923.730469 570.386719 " fill-opacity="1" fill-rule="nonzero"/></g><path fill="#2f91fa" d="M 898.324219 446.175781 C 926.296875 509.179688 1019.582031 470.558594 994.945312 406.144531 C 966.847656 343.269531 873.5625 381.890625 898.324219 446.175781 Z M 898.324219 446.175781 " fill-opacity="1" fill-rule="nonzero"/><g fill="#ffffff" fill-opacity="1"><g transform="translate(491.084151, 1084.640215)"><g><path d="M 46.296875 0 L 18.96875 0 L 18.96875 -18.546875 L 45.234375 -18.546875 C 52.085938 -18.546875 57.8125 -19.769531 62.40625 -22.21875 C 67.007812 -24.675781 70.46875 -28.441406 72.78125 -33.515625 C 75.09375 -38.597656 76.25 -45.03125 76.25 -52.8125 C 76.25 -60.550781 75.09375 -66.945312 72.78125 -72 C 70.46875 -77.050781 67.019531 -80.800781 62.4375 -83.25 C 57.863281 -85.707031 52.179688 -86.9375 45.390625 -86.9375 L 18.484375 -86.9375 L 18.484375 -105.5 L 46.65625 -105.5 C 57.28125 -105.5 66.398438 -103.382812 74.015625 -99.15625 C 81.640625 -94.925781 87.515625 -88.867188 91.640625 -80.984375 C 95.773438 -73.109375 97.84375 -63.71875 97.84375 -52.8125 C 97.84375 -41.863281 95.789062 -32.445312 91.6875 -24.5625 C 87.582031 -16.6875 81.671875 -10.625 73.953125 -6.375 C 66.234375 -2.125 57.015625 0 46.296875 0 Z M 30.796875 -105.5 L 30.796875 0 L 9.140625 0 L 9.140625 -105.5 Z M 30.796875 -105.5 "/></g></g></g><g fill="#ffffff" fill-opacity="1"><g transform="translate(598.712678, 1084.640215)"><g><path d="M 44.109375 1.5625 C 36.128906 1.5625 29.25 -0.0859375 23.46875 -3.390625 C 17.6875 -6.703125 13.222656 -11.378906 10.078125 -17.421875 C 6.941406 -23.460938 5.375 -30.566406 5.375 -38.734375 C 5.375 -46.796875 6.929688 -53.859375 10.046875 -59.921875 C 13.171875 -65.992188 17.5625 -70.738281 23.21875 -74.15625 C 28.882812 -77.582031 35.519531 -79.296875 43.125 -79.296875 C 48.363281 -79.296875 53.222656 -78.445312 57.703125 -76.75 C 62.179688 -75.050781 66.109375 -72.535156 69.484375 -69.203125 C 72.859375 -65.878906 75.476562 -61.726562 77.34375 -56.75 C 79.207031 -51.769531 80.140625 -46.019531 80.140625 -39.5 L 80.140625 -33.625 L 13.8125 -33.625 L 13.8125 -46.9375 L 69.875 -46.9375 L 60.046875 -43.46875 C 60.046875 -47.53125 59.40625 -51.046875 58.125 -54.015625 C 56.851562 -56.992188 54.976562 -59.296875 52.5 -60.921875 C 50.019531 -62.546875 46.960938 -63.359375 43.328125 -63.359375 C 39.691406 -63.359375 36.597656 -62.53125 34.046875 -60.875 C 31.503906 -59.226562 29.5625 -56.960938 28.21875 -54.078125 C 26.875 -51.203125 26.203125 -47.90625 26.203125 -44.1875 L 26.203125 -34.828125 C 26.203125 -30.441406 26.957031 -26.710938 28.46875 -23.640625 C 29.976562 -20.578125 32.113281 -18.253906 34.875 -16.671875 C 37.632812 -15.085938 40.851562 -14.296875 44.53125 -14.296875 C 47.03125 -14.296875 49.304688 -14.660156 51.359375 -15.390625 C 53.421875 -16.128906 55.171875 -17.191406 56.609375 -18.578125 C 58.046875 -19.972656 59.140625 -21.6875 59.890625 -23.71875 L 79.078125 -20.953125 C 77.859375 -16.421875 75.65625 -12.46875 72.46875 -9.09375 C 69.28125 -5.71875 65.289062 -3.097656 60.5 -1.234375 C 55.707031 0.628906 50.242188 1.5625 44.109375 1.5625 Z M 44.109375 1.5625 "/></g></g></g><g fill="#ffffff" fill-opacity="1"><g transform="translate(684.464315, 1084.640215)"><g><path d="M 2.546875 0 L 33.0625 -47.578125 L 32.921875 -32.703125 L 4.109375 -78.171875 L 26.96875 -78.171875 L 34.0625 -66.125 C 36.226562 -62.257812 38.207031 -58.4375 40 -54.65625 C 41.789062 -50.882812 43.609375 -47.203125 45.453125 -43.609375 L 37.671875 -43.609375 C 39.597656 -47.203125 41.445312 -50.882812 43.21875 -54.65625 C 44.988281 -58.4375 47.007812 -62.257812 49.28125 -66.125 L 56.5625 -78.171875 L 79.078125 -78.171875 L 49.703125 -32.5 L 49.765625 -47.21875 L 80.21875 0 L 57.421875 0 L 48.921875 -14.15625 C 46.703125 -17.976562 44.671875 -21.765625 42.828125 -25.515625 C 40.992188 -29.273438 39.15625 -32.898438 37.3125 -36.390625 L 44.890625 -36.390625 C 43.046875 -32.898438 41.25 -29.273438 39.5 -25.515625 C 37.757812 -21.765625 35.78125 -17.976562 33.5625 -14.15625 L 25.140625 0 Z M 2.546875 0 "/></g></g></g><g fill="#ffffff" fill-opacity="1"><g transform="translate(770.85317, 1084.640215)"><g><path d="M 8.640625 28.390625 L 12.46875 12.25 L 16.5625 12.8125 C 19.164062 13.382812 21.445312 13.476562 23.40625 13.09375 C 25.363281 12.71875 26.941406 11.832031 28.140625 10.4375 C 29.347656 9.050781 30.140625 7.128906 30.515625 4.671875 L 31.4375 0.140625 L 1.90625 -78.171875 L 24.28125 -78.171875 L 37.453125 -38.015625 C 39.054688 -33.015625 40.390625 -28 41.453125 -22.96875 C 42.515625 -17.945312 43.679688 -12.742188 44.953125 -7.359375 L 39.859375 -7.359375 C 41.128906 -12.742188 42.398438 -17.960938 43.671875 -23.015625 C 44.953125 -28.066406 46.394531 -33.066406 48 -38.015625 L 61.671875 -78.171875 L 83.828125 -78.171875 L 50.34375 9.84375 C 48.738281 14.039062 46.71875 17.648438 44.28125 20.671875 C 41.851562 23.691406 38.867188 26.003906 35.328125 27.609375 C 31.785156 29.210938 27.515625 30.015625 22.515625 30.015625 C 19.828125 30.015625 17.265625 29.859375 14.828125 29.546875 C 12.398438 29.242188 10.335938 28.859375 8.640625 28.390625 Z M 8.640625 28.390625 "/></g></g></g><g fill="#ffffff" fill-opacity="1"><g transform="translate(860.215589, 1084.640215)"><g/></g></g><g fill="#ffffff" fill-opacity="1"><g transform="translate(897.470041, 1084.640215)"><g><path d="M 2.828125 0 L 39.15625 -105.5 L 67.328125 -105.5 L 104.359375 0 L 80.28125 0 L 63.4375 -50.984375 C 61.40625 -57.585938 59.335938 -64.722656 57.234375 -72.390625 C 55.140625 -80.066406 52.910156 -88.503906 50.546875 -97.703125 L 55.515625 -97.703125 C 53.191406 -88.503906 51.039062 -80.046875 49.0625 -72.328125 C 47.082031 -64.609375 45.101562 -57.492188 43.125 -50.984375 L 26.625 0 Z M 25.5625 -24.140625 L 25.5625 -41.203125 L 81.640625 -41.203125 L 81.640625 -24.140625 Z M 25.5625 -24.140625 "/></g></g></g><g fill="#ffffff" fill-opacity="1"><g transform="translate(1008.284546, 1084.640215)"><g><path d="M 30.796875 -105.5 L 30.796875 0 L 9.140625 0 L 9.140625 -105.5 Z M 30.796875 -105.5 "/></g></g></g></svg>