<svg width="16" height="16" viewBox="0 0 16 16" fill="none" xmlns="http://www.w3.org/2000/svg">
<path d="M2 4C2 1.794 3.79467 0 6 0C8.20533 0 10 1.794 10 4C10 6.206 8.206 8 6 8C3.794 8 2 6.206 2 4ZM16 12C16 14.2093 14.2093 16 12 16C9.79067 16 8 14.2093 8 12C8 9.79067 9.79067 8 12 8C14.2093 8 16 9.79067 16 12ZM14.4747 10.8653C14.2193 10.5993 13.7967 10.592 13.532 10.846L11.7233 12.5953C11.628 12.6893 11.4707 12.6913 11.3753 12.5967L10.4727 11.7093C10.2087 11.4507 9.78733 11.4553 9.53 11.7187C9.272 11.982 9.276 12.4033 9.53933 12.6613L10.442 13.5493C10.7487 13.8487 11.15 13.9987 11.5507 13.9987C11.9513 13.9987 12.3513 13.8487 12.6527 13.5513L14.4547 11.8087C14.72 11.5533 14.7287 11.1313 14.474 10.866L14.4747 10.8653ZM6.66667 12C6.66667 11.088 6.89667 10.23 7.3 9.47933C6.88067 9.386 6.44667 9.33333 6 9.33333C2.696 9.33333 0.00666779 12.0187 1.12391e-06 15.322C-0.000665543 15.6933 0.295334 16 0.666668 16H8.48067C7.37067 15.0227 6.66667 13.5953 6.66667 12Z" fill="#1E4D92"/>
</svg>
