<svg xmlns="http://www.w3.org/2000/svg" xmlns:xlink="http://www.w3.org/1999/xlink" width="2000" zoomAndPan="magnify" viewBox="0 0 1500 1499.999933" height="2000" preserveAspectRatio="xMidYMid meet" version="1.0"><defs><clipPath id="9563eb533c"><path d="M 225 360.152344 L 1275 360.152344 L 1275 1140 L 225 1140 Z M 225 360.152344 " clip-rule="nonzero"/></clipPath></defs><g clip-path="url(#9563eb533c)"><path fill="#1e4d92" d="M 780.371094 428.402344 L 853.570312 433.863281 L 797.433594 480.957031 L 814.496094 552.28125 L 752.644531 513.71875 L 690.28125 552.28125 L 707.769531 480.957031 L 651.632812 433.523438 L 724.832031 428.402344 L 752.558594 360.152344 Z M 477.59375 1139.835938 C 479.210938 1090.011719 476.398438 1089.246094 534.667969 1067.488281 C 568.792969 1054.609375 612.558594 1038.398438 643.953125 1018.859375 C 680.894531 1052.988281 704.527344 1092.144531 705.378906 1139.835938 Z M 677.996094 971.851562 C 679.613281 959.226562 642.246094 911.367188 635.335938 888.332031 C 620.75 865.210938 615.542969 833.472656 631.5 808.988281 C 637.8125 799.261719 635.082031 791.160156 635.082031 777.847656 C 635.082031 644.503906 868.757812 644.332031 868.757812 777.847656 C 868.757812 794.914062 864.917969 798.238281 874.046875 811.464844 C 889.402344 833.730469 881.46875 867.769531 868.5 888.246094 C 859.96875 912.390625 821.234375 958.03125 823.882812 971.769531 C 826.183594 1040.019531 677.3125 1037.886719 677.824219 971.769531 Z M 1027.78125 1139.835938 C 1026.160156 1090.011719 1028.976562 1089.246094 970.707031 1067.488281 C 936.582031 1054.609375 892.816406 1038.398438 861.417969 1018.859375 C 824.476562 1052.988281 800.847656 1092.144531 799.992188 1139.835938 Z M 1274.339844 689.292969 L 1229.378906 747.390625 L 1261.285156 813.425781 L 1192.265625 788.597656 L 1139.285156 839.789062 L 1141.503906 766.417969 L 1076.835938 731.695312 L 1147.21875 710.792969 L 1160.273438 638.53125 L 1201.480469 699.191406 L 1274.253906 689.292969 Z M 1074.703125 458.945312 L 1064.894531 531.71875 L 1125.550781 573.011719 L 1053.375 585.722656 L 1032.558594 656.191406 L 997.921875 591.523438 L 924.550781 593.742188 L 975.3125 540.761719 L 950.402344 471.65625 L 1016.519531 503.566406 L 1074.53125 458.519531 Z M 225.832031 689.378906 L 298.601562 699.277344 L 339.894531 638.617188 L 353.035156 710.792969 L 423.503906 731.351562 L 358.835938 766.078125 L 361.054688 839.445312 L 307.988281 788.257812 L 238.882812 813.085938 L 270.789062 746.964844 Z M 430.582031 458.519531 L 488.597656 503.480469 L 554.714844 471.574219 L 529.972656 540.589844 L 581.164062 593.570312 L 507.367188 591.351562 L 473.242188 656.019531 L 452.679688 585.550781 L 380.335938 572.5 L 440.566406 530.78125 Z M 430.582031 458.519531 " fill-opacity="1" fill-rule="nonzero"/></g></svg>