<svg width="16" height="16" viewBox="0 0 16 16" fill="none" xmlns="http://www.w3.org/2000/svg">
<path d="M16 7.53933V16H8.0041C6.44188 15.9993 4.914 15.542 3.60864 14.6847C2.30328 13.8273 1.27745 12.6072 0.657517 11.1746C0.0375819 9.74211 -0.149389 8.15971 0.119635 6.62235C0.388659 5.08499 1.10193 3.65981 2.17159 2.52236C3.24124 1.38491 4.62058 0.584861 6.13969 0.220759C7.65879 -0.143343 9.25134 -0.0555971 10.7212 0.47319C12.191 1.00198 13.4739 1.94871 14.4118 3.19678C15.3498 4.44485 15.9018 5.93974 16 7.49733V7.53933ZM8.65942 4.66667H4.65546V6H8.65942V4.66667ZM11.3287 7.33333H4.65546V8.66667H11.3287V7.33333ZM11.3287 10H4.65546V11.3333H11.3287V10Z" fill="#1E4D92"/>
</svg>
