<svg width="329" height="99" viewBox="0 0 329 99" fill="none" xmlns="http://www.w3.org/2000/svg">
<g clip-path="url(#clip0_124_722)">
<path d="M131.658 1.27319H116.386V97.7269H131.658V1.27319Z" fill="#166BF4"/>
<path d="M214.241 15.0097C209.739 10.5952 204.379 7.15786 198.496 4.91169C191.969 2.44206 185.042 1.20768 178.067 1.27113H143.678V97.7268H178.067C185.038 97.7915 191.962 96.5723 198.495 94.1298C204.374 91.9117 209.733 88.5023 214.24 84.1143C218.639 79.7947 222.088 74.5993 224.364 68.8624C226.779 62.7213 227.993 56.1718 227.941 49.5706C227.99 42.9822 226.775 36.4458 224.364 30.3171C222.084 24.5658 218.637 19.353 214.241 15.0097V15.0097ZM212.648 49.5706C212.648 70.1626 198.427 84.5446 178.067 84.5446H158.541V14.454H178.067C198.75 14.454 212.648 28.5661 212.648 49.5706Z" fill="#166BF4"/>
<path d="M315.455 68.7879L315.371 68.8981C307.738 78.8793 296.869 84.3764 284.767 84.3764C264.956 84.3764 250.576 69.8993 250.576 49.9528C250.576 29.8855 265.331 14.753 284.896 14.753C296.518 14.753 307.438 20.4416 314.854 30.36L314.939 30.4736L325.623 20.8019L325.706 20.7273L325.644 20.6343C321.344 14.3274 315.517 9.21944 308.711 5.78957C301.215 1.96306 292.919 -0.0213244 284.509 4.87663e-05C271.217 4.87663e-05 258.837 4.93091 249.648 13.8838C245.045 18.3643 241.396 23.7348 238.922 29.6703C236.265 36.0979 234.92 42.9946 234.965 49.9528C234.914 56.8228 236.232 63.6338 238.843 69.9851C241.268 75.8189 244.864 81.0898 249.406 85.47C258.448 94.1959 270.777 99 284.124 99C292.69 99.0169 301.138 96.9997 308.778 93.1135C315.642 89.6307 321.596 84.581 326.16 78.3704L326.229 78.2747L315.455 68.7879Z" fill="#166BF4"/>
<path d="M18.8846 88.3357C23.6266 92.2943 29.0548 95.3434 34.8977 97.3301C35.155 97.4175 35.4248 97.462 35.6965 97.4621H66.3922C66.6638 97.462 66.9336 97.4175 67.191 97.3301C71.2888 95.9379 75.1898 94.0196 78.7968 91.6231C78.9656 91.5105 79.0938 91.3464 79.1625 91.1551C79.2311 90.9638 79.2365 90.7554 79.1779 90.5607C79.1194 90.366 78.9999 90.1954 78.8371 90.0742C78.6744 89.9529 78.4771 89.8874 78.2743 89.8873H48.4024C47.239 89.8879 46.0942 89.5941 45.074 89.0331C44.0538 88.4721 43.1912 87.662 42.566 86.6777C42.4527 86.5009 42.2969 86.3554 42.113 86.2548C41.929 86.1541 41.7228 86.1014 41.5132 86.1016H19.686C19.4272 86.1017 19.1746 86.1819 18.9629 86.3313C18.7512 86.4807 18.5905 86.6919 18.5029 86.9362C18.4152 87.1805 18.4049 87.446 18.4732 87.6965C18.5415 87.9469 18.6851 88.1701 18.8846 88.3357Z" fill="#166BF4"/>
<path d="M83.1824 10.6643C78.5544 6.80178 73.2723 3.80463 67.5878 1.81569C67.0588 1.63163 66.5027 1.53836 65.9428 1.53981H36.0959C35.5376 1.53882 34.9831 1.63185 34.4555 1.81503C30.5104 3.19432 26.7526 5.06274 23.2695 7.37685C23.1007 7.48943 22.9724 7.65353 22.9038 7.84486C22.8352 8.0362 22.8297 8.24461 22.8883 8.43928C22.9469 8.63395 23.0664 8.80453 23.2291 8.9258C23.3919 9.04707 23.5892 9.11258 23.7919 9.11265H53.6651C54.8286 9.11205 55.9734 9.40586 56.9936 9.96689C58.0138 10.5279 58.8764 11.338 59.5016 12.3222C59.6152 12.4996 59.7715 12.6453 59.9561 12.746C60.1406 12.8467 60.3476 12.8991 60.5577 12.8984H82.3816C82.6402 12.8978 82.8924 12.8172 83.1037 12.6677C83.3151 12.5183 83.4754 12.3071 83.563 12.063C83.6505 11.8189 83.6609 11.5537 83.5928 11.3034C83.5247 11.0531 83.3814 10.83 83.1824 10.6643V10.6643Z" fill="#166BF4"/>
<path d="M101.316 47.5273C101.296 47.0392 101.089 46.5777 100.737 46.2396C100.386 45.9015 99.9174 45.713 99.4303 45.7136H79.9766C79.4984 45.7138 79.03 45.5773 78.6264 45.3201C78.2227 45.063 77.9004 44.6958 77.6973 44.2616C77.5412 43.9379 77.2967 43.6653 76.9922 43.4755C76.6877 43.2858 76.3357 43.1867 75.9772 43.1898H3.38931C2.75497 43.1902 2.14415 43.4307 1.67891 43.8633C1.21367 44.2958 0.928254 44.8885 0.879701 45.5229C0.775737 46.8349 0.723755 48.1607 0.723755 49.5C0.723755 50.16 0.736257 50.8176 0.761261 51.4728C0.781316 51.9609 0.988909 52.4224 1.34056 52.7605C1.69221 53.0985 2.16065 53.287 2.64775 53.2864H22.0838C22.5618 53.2864 23.03 53.4229 23.4336 53.6801C23.8371 53.9372 24.1593 54.3043 24.3624 54.7384C24.5186 55.0622 24.7633 55.3348 25.0679 55.5245C25.3725 55.7142 25.7245 55.8133 26.0831 55.8103H98.6901C99.3244 55.8098 99.9352 55.5693 100.4 55.1368C100.866 54.7043 101.151 54.1116 101.2 53.4772C101.301 52.1651 101.353 50.8394 101.354 49.5C101.354 48.84 101.342 48.1824 101.316 47.5273Z" fill="#166BF4"/>
<path d="M68.0708 30.5686C69.1271 30.5679 70.1665 30.8344 71.0929 31.3432C72.0194 31.852 72.8031 32.5869 73.3716 33.4798C73.5423 33.7478 73.7775 33.9684 74.0556 34.1213C74.3336 34.2741 74.6456 34.3542 74.9627 34.3543H96.4029C96.7083 34.3541 97.009 34.2796 97.2793 34.1372C97.5496 33.9948 97.7815 33.7889 97.9551 33.5369C98.1287 33.2849 98.2387 32.9945 98.2759 32.6905C98.313 32.3866 98.2761 32.0781 98.1684 31.7915C97.0127 28.6981 95.5559 25.7265 93.819 22.9198C93.5934 22.5559 93.2789 22.2558 92.9054 22.0479C92.5319 21.8401 92.1116 21.7312 91.6844 21.7318H10.3569C9.92976 21.7312 9.50949 21.8401 9.13596 22.0479C8.76242 22.2558 8.44797 22.5559 8.22239 22.9198C7.14387 24.6626 6.17281 26.4699 5.31469 28.3318C5.20455 28.5722 5.15646 28.8365 5.17485 29.1004C5.19323 29.3644 5.2775 29.6194 5.4199 29.8421C5.5623 30.0648 5.75825 30.248 5.98973 30.3748C6.2212 30.5016 6.48076 30.568 6.74452 30.5679L68.0708 30.5686Z" fill="#166BF4"/>
<path d="M33.9482 68.4314C32.892 68.432 31.8526 68.1656 30.9261 67.6567C29.9996 67.1479 29.2159 66.4131 28.6474 65.5201C28.4767 65.2521 28.2415 65.0315 27.9634 64.8787C27.6854 64.7259 27.3734 64.6457 27.0564 64.6456H5.61609C5.31076 64.6459 5.01004 64.7204 4.73971 64.8627C4.46938 65.0051 4.2375 65.2111 4.06393 65.4631C3.89036 65.715 3.78029 66.0054 3.74315 66.3094C3.70601 66.6134 3.7429 66.9219 3.85067 67.2084C5.00633 70.3018 6.46317 73.2734 8.20005 76.0801C8.42563 76.444 8.74008 76.7441 9.11362 76.952C9.48715 77.1599 9.90742 77.2687 10.3346 77.2681H91.6595C92.0866 77.2687 92.5069 77.1599 92.8804 76.952C93.254 76.7441 93.5684 76.444 93.794 76.0801C94.8725 74.3374 95.8436 72.53 96.7017 70.6681C96.8118 70.4277 96.8599 70.1634 96.8416 69.8995C96.8232 69.6356 96.7389 69.3805 96.5965 69.1578C96.4541 68.9352 96.2581 68.752 96.0267 68.6251C95.7952 68.4983 95.5356 68.4319 95.2719 68.4321L33.9482 68.4314Z" fill="#166BF4"/>
</g>
<defs>
<clipPath id="clip0_124_722">
<rect width="329" height="99" fill="white"/>
</clipPath>
</defs>
</svg>
