<svg width="16" height="16" viewBox="0 0 16 16" fill="none" xmlns="http://www.w3.org/2000/svg">
<g clip-path="url(#clip0_10184_2603)">
<path d="M14.3327 0L10.9993 0.00133333C10.0827 0.00133333 9.33333 0.752 9.33333 1.668V6.236C9.334 6.94867 10.1373 7.366 10.7207 6.95667L12.0853 5.99933H14.3333C15.254 5.99933 16 5.25333 16 4.33267V1.666C16 0.746 15.2533 0 14.3327 0ZM14.6553 2.82667L13.266 4.258C12.7353 4.80667 11.854 4.80267 11.3293 4.248L10.8167 3.706C10.572 3.44733 10.574 3.04267 10.8207 2.78667C11.084 2.51267 11.5233 2.51467 11.784 2.79067L12.302 3.338L13.6967 1.90067C13.9573 1.63067 14.39 1.62933 14.652 1.898C14.904 2.156 14.9053 2.56733 14.6547 2.82733L14.6553 2.82667ZM5 8C7.02133 8 8.66667 6.35533 8.66667 4.33333C8.66667 2.31133 7.02133 0.666667 5 0.666667C2.97867 0.666667 1.33333 2.31133 1.33333 4.33333C1.33333 6.35533 2.97867 8 5 8ZM5 9.33333C2.24267 9.33333 0 11.576 0 14.3333V15.3333C0 15.7013 0.298 16 0.666667 16H9.33333C9.702 16 10 15.7013 10 15.3333V14.3333C10 11.576 7.75733 9.33333 5 9.33333Z" fill="#1E4D92"/>
</g>
<defs>
<clipPath id="clip0_10184_2603">
<rect width="16" height="16" fill="white"/>
</clipPath>
</defs>
</svg>
