<svg width="16" height="16" viewBox="0 0 16 16" fill="none" xmlns="http://www.w3.org/2000/svg">
<path d="M0 3.3332C0 2.22852 1.79067 1.33318 4 1.33318C6.20933 1.33318 8 2.22852 8 3.3332C8 4.43788 6.20933 5.33322 4 5.33322C1.79067 5.33322 0 4.43788 0 3.3332ZM4 10.6666C6.28067 10.6666 8 9.66327 8 8.33325V6.99991C8 8.31392 6.33333 9.33326 4 9.33326C1.66667 9.33326 0 8.31392 0 6.99991V8.33325C0 9.66327 1.71933 10.6666 4 10.6666ZM4 7.99992C6.28067 7.99992 8 6.99657 8 5.66656V4.33321C8 5.64723 6.33333 6.66657 4 6.66657C1.66667 6.66657 0 5.64723 0 4.33321V5.66656C0 6.99657 1.71933 7.99992 4 7.99992ZM12 10.6666C14.2093 10.6666 16 9.77127 16 8.66659C16 7.56191 14.2093 6.66657 12 6.66657C9.79067 6.66657 8 7.56191 8 8.66659C8 9.77127 9.79067 10.6666 12 10.6666ZM12 14.6667C9.66667 14.6667 8 13.6473 8 12.3333C8 13.6473 6.33333 14.6667 4 14.6667C1.66667 14.6667 0 13.6473 0 12.3333V13.6666C0 14.9967 1.71933 16 4 16C6.28067 16 8 14.9967 8 13.6666C8 14.9967 9.71933 16 12 16C14.2807 16 16 14.9967 16 13.6666V12.3333C16 13.6473 14.3333 14.6667 12 14.6667ZM12 12C9.66667 12 8 10.9806 8 9.6666C8 10.9806 6.33333 12 4 12C1.66667 12 0 10.9806 0 9.6666V10.9999C0 12.33 1.71933 13.3333 4 13.3333C6.28067 13.3333 8 12.33 8 10.9999C8 12.33 9.71933 13.3333 12 13.3333C14.2807 13.3333 16 12.33 16 10.9999V9.6666C16 10.9806 14.3333 12 12 12ZM10.2 2.8332C10.3693 2.8332 10.5387 2.7692 10.668 2.64053L11.3333 1.98652V4.66655C11.3333 5.03455 11.6313 5.33322 12 5.33322C12.3687 5.33322 12.6667 5.03455 12.6667 4.66655V1.99319L13.3353 2.64386C13.5993 2.90053 14.0207 2.89453 14.278 2.63119C14.5347 2.36719 14.5293 1.94519 14.2647 1.68852L12.9293 0.387838C12.41 -0.128834 11.5687 -0.128834 11.0547 0.385171L9.732 1.69118C9.46933 1.94985 9.46733 2.37186 9.72533 2.63386C9.856 2.76586 10.028 2.83186 10.2 2.83186V2.8332Z" fill="#1E4D92"/>
</svg>
